<svg aria-hidden="true" style="position: absolute; width: 0; height: 0; overflow: hidden;" version="1.1" xmlns="http://www.w3.org/2000/svg" xmlns:xlink="http://www.w3.org/1999/xlink">
<defs>
<symbol id="Logo" viewBox="0 0 38 32">
<path d="M21.777 9.64l-0.717-0.572c-0.092-0.079-0.213-0.127-0.345-0.127-0.171 0-0.323 0.081-0.42 0.206l-0.001 0.001-9.916 11.899 0.153 0.177 2.456-2.366c-0.084-0.036-0.15-0.099-0.19-0.177l-0.001-0.002c-0.028-0.054-0.045-0.119-0.045-0.187 0-0.028 0.003-0.055 0.008-0.081l-0 0.003c0.018-0.090 0.065-0.171 0.134-0.229 0.063-0.054 0.146-0.087 0.237-0.087 0.002 0 0.004 0 0.006 0h-0c0.080 0 0.157 0.027 0.221 0.076s0.11 0.117 0.134 0.196l0.001 0.003 3.238-3.138c0.047-0.040 0.108-0.064 0.175-0.064s0.128 0.024 0.176 0.064l-0-0 0.164 0.126c0.044 0.033 0.099 0.053 0.159 0.053 0.083 0 0.158-0.038 0.206-0.099l0-0.001 4.234-4.961c0.078-0.087 0.125-0.202 0.125-0.329 0-0.087-0.022-0.168-0.062-0.239l0.001 0.003c-0.033-0.059-0.077-0.109-0.129-0.148l-0.001-0.001z"></path>
<path d="M26.437 12.989c-2.041 1.536-4.433 2.741-7.023 3.478l-0.153 0.037c-2.299 0.638-4.969 1.072-7.717 1.208l-0.088 0.003c0.053 0.406 0.149 0.805 0.285 1.189 1.488 1.406 12.689-0.994 14.877-3.772 0.465-0.577-0.181-2.143-0.181-2.143zM13.135 18.859c-0.077-0-0.149-0.025-0.207-0.066l0.001 0.001c-0.061-0.043-0.108-0.103-0.136-0.172l-0.001-0.003c-0.018-0.044-0.028-0.094-0.028-0.147 0-0.107 0.041-0.204 0.108-0.276l-0 0c0.066-0.070 0.159-0.114 0.262-0.114 0.052 0 0.101 0.011 0.146 0.031l-0.002-0.001c0.067 0.029 0.126 0.078 0.166 0.143 0.041 0.063 0.063 0.138 0.063 0.215 0 0.001 0 0.003 0 0.004 0 0.105-0.041 0.201-0.108 0.272l0-0c-0.067 0.069-0.16 0.112-0.263 0.112-0 0-0.001 0-0.001 0h0zM2.552 12.166l0.088-0.394 1.422 0.337c0.117 0.226 0.19 0.475 0.213 0.732 0.027 0.271 0.011 0.546-0.049 0.812-0.074 0.384-0.24 0.72-0.473 0.998l0.003-0.003c-0.219 0.26-0.504 0.457-0.829 0.568l-0.013 0.004c-0.176 0.059-0.378 0.093-0.588 0.093-0.158 0-0.312-0.019-0.459-0.055l0.013 0.003c-0.359-0.084-0.669-0.26-0.913-0.503l0 0c-0.246-0.239-0.428-0.543-0.517-0.884l-0.003-0.013c-0.047-0.171-0.074-0.368-0.074-0.572s0.027-0.4 0.077-0.587l-0.004 0.016c0.059-0.28 0.165-0.547 0.312-0.789 0.14-0.22 0.327-0.402 0.547-0.531l0.197 0.314c-0.189 0.121-0.35 0.282-0.474 0.473-0.119 0.181-0.206 0.395-0.246 0.626l-0.001 0.010c-0.030 0.125-0.047 0.269-0.047 0.416 0 0.171 0.023 0.337 0.066 0.494l-0.003-0.013c0.074 0.278 0.219 0.529 0.421 0.726 0.207 0.21 0.468 0.354 0.749 0.417 0.274 0.080 0.563 0.080 0.837 0 0.262-0.090 0.497-0.25 0.684-0.463 0.191-0.23 0.323-0.508 0.383-0.806 0.034-0.132 0.054-0.284 0.054-0.441 0-0.234-0.044-0.458-0.124-0.663l0.004 0.012-1.253-0.331zM5.648 8.572l-1.274 1.777 0.547 1.023-0.251 0.354-2.024-3.858 0.235-0.337 4.119 0.926-0.257 0.354-1.094-0.24zM5.286 8.48l-2.188-0.514 1.094 2.052 1.094-1.537zM5.286 4.886l0.328-0.257 2.084 2.915 1.718-1.343 0.207 0.291-2.040 1.594-2.297-3.2zM8.733 2.502l0.366-0.171 1.444 3.303 1.953-0.926 0.142 0.331-2.319 1.103-1.586-3.64zM15.941 3.817l0.082 0.36-2.636 0.646-0.876-3.898 2.56-0.623 0.076 0.354-2.188 0.531 0.312 1.383 1.925-0.474 0.082 0.354-1.931 0.469 0.328 1.446 2.264-0.549zM19.699 3.96l-0.914-1.257c-0.102 0.006-0.204 0.006-0.306 0l-1.029 0.034 0.038 1.269h-0.405l-0.126-4.001 1.455-0.006c0.412-0.040 0.823 0.076 1.16 0.326 0.142 0.119 0.256 0.271 0.334 0.444s0.117 0.36 0.114 0.551c0.001 0.024 0.002 0.051 0.002 0.079 0 0.267-0.076 0.516-0.208 0.726l0.003-0.006c-0.154 0.223-0.371 0.392-0.625 0.483l-0.009 0.003 0.957 1.337-0.443 0.017zM19.316 2.079c0.098-0.094 0.174-0.21 0.223-0.341s0.067-0.269 0.056-0.408c0-0.006 0-0.013 0-0.020 0-0.139-0.030-0.271-0.083-0.39l0.002 0.006c-0.058-0.129-0.14-0.239-0.241-0.326l-0.001-0.001c-0.207-0.149-0.467-0.239-0.747-0.239-0.039 0-0.078 0.002-0.116 0.005l0.005-0-1.040 0.040 0.066 2 1.017-0.034c0.014 0.001 0.030 0.001 0.046 0.001 0.31 0 0.594-0.11 0.815-0.294l-0.002 0.002zM22.592 2.897l-0.197 1.366-0.399-0.063 0.202-1.343-1.132-2.858 0.426 0.069 0.968 2.435 1.64-2.017 0.383 0.086-1.892 2.326zM28.001 2.657l0.476 0.646-0.208 0.171-0.476-0.663-0.301 0.749-0.23-0.103 0.306-0.749-0.788 0.109v-0.274l0.777-0.091-0.482-0.646 0.213-0.171 0.421 0.652 0.295-0.754 0.235 0.103-0.279 0.766 0.788-0.114v0.28l-0.75 0.091zM29.828 7.263c-0.124-0.198-0.208-0.433-0.234-0.684l-0.001-0.007 0.322-0.149c0.025 0.226 0.095 0.445 0.208 0.64 0.122 0.219 0.281 0.413 0.47 0.572 0.194 0.195 0.444 0.321 0.711 0.36 0.097 0.009 0.194-0.006 0.283-0.045s0.169-0.1 0.231-0.178c0.079-0.093 0.127-0.214 0.127-0.347 0-0.015-0.001-0.029-0.002-0.044l0 0.002c-0.020-0.147-0.066-0.281-0.134-0.4l0.003 0.005c-0.103-0.175-0.214-0.345-0.334-0.509-0.134-0.181-0.264-0.386-0.38-0.601l-0.014-0.028c-0.086-0.155-0.138-0.34-0.142-0.536l-0-0.001c0-0.211 0.076-0.416 0.214-0.572 0.119-0.151 0.276-0.263 0.454-0.326 0.091-0.028 0.195-0.045 0.303-0.045s0.213 0.016 0.311 0.047l-0.007-0.002c0.255 0.087 0.492 0.227 0.695 0.412 0.168 0.146 0.317 0.315 0.443 0.503 0.116 0.174 0.203 0.367 0.257 0.572l-0.312 0.171c-0.059-0.204-0.141-0.383-0.245-0.545l0.005 0.008c-0.107-0.15-0.227-0.279-0.363-0.392l-0.003-0.003c-0.183-0.187-0.427-0.313-0.7-0.348l-0.006-0.001c-0.015-0.001-0.032-0.002-0.050-0.002-0.086 0-0.167 0.019-0.239 0.053l0.003-0.001c-0.092 0.043-0.169 0.106-0.227 0.184l-0.001 0.002c-0.080 0.090-0.128 0.209-0.128 0.339 0 0.017 0.001 0.035 0.003 0.052l-0-0.002c0.013 0.144 0.058 0.283 0.131 0.406 0.077 0.131 0.186 0.303 0.334 0.509 0.146 0.194 0.278 0.401 0.394 0.617 0.090 0.163 0.141 0.349 0.147 0.537 0 0.211-0.076 0.416-0.214 0.572-0.12 0.153-0.279 0.266-0.459 0.326-0.198 0.063-0.409 0.063-0.607 0-0.271-0.094-0.504-0.234-0.702-0.413l0.002 0.002c-0.218-0.2-0.401-0.434-0.54-0.695l-0.007-0.014zM35.331 8.097l-0.772-1.143 0.285-0.211 1.777 2.652-0.284 0.211-0.772-1.143-2.855 2.086-0.23-0.349 2.85-2.103zM34.105 12.795c0.097-0.345 0.287-0.655 0.547-0.892 0.243-0.229 0.547-0.395 0.884-0.472l0.013-0.002c0.133-0.033 0.286-0.052 0.443-0.052 0.209 0 0.41 0.034 0.599 0.096l-0.013-0.004c0.322 0.111 0.61 0.309 0.837 0.572 0.229 0.275 0.392 0.611 0.463 0.981l0.002 0.014c0.043 0.166 0.068 0.356 0.068 0.552s-0.025 0.386-0.071 0.567l0.003-0.016c-0.208 0.69-0.761 1.216-1.453 1.38l-0.014 0.003c-0.13 0.031-0.28 0.049-0.433 0.049-0.214 0-0.42-0.035-0.613-0.099l0.014 0.004c-0.337-0.113-0.62-0.311-0.834-0.569l-0.002-0.003c-0.228-0.273-0.391-0.608-0.463-0.975l-0.002-0.014c-0.036-0.152-0.056-0.326-0.056-0.506 0-0.219 0.031-0.43 0.088-0.631l-0.004 0.016zM34.822 14.613c0.183 0.217 0.419 0.377 0.684 0.463 0.273 0.083 0.56 0.093 0.838 0.029 0.292-0.069 0.544-0.207 0.75-0.395l-0.001 0.001c0.202-0.194 0.35-0.44 0.431-0.714 0.040-0.147 0.063-0.315 0.063-0.489 0-0.141-0.015-0.278-0.044-0.41l0.002 0.013c-0.065-0.306-0.197-0.573-0.38-0.798l0.003 0.003c-0.184-0.212-0.423-0.372-0.694-0.46l-0.011-0.003c-0.126-0.036-0.271-0.057-0.421-0.057s-0.295 0.021-0.432 0.060l0.011-0.003c-0.292 0.061-0.546 0.2-0.744 0.395l0-0c-0.2 0.193-0.35 0.436-0.429 0.709l-0.003 0.011c-0.035 0.133-0.056 0.286-0.056 0.443s0.020 0.31 0.058 0.455l-0.003-0.012c0.060 0.283 0.19 0.546 0.377 0.76zM33.69 19.43l1.416-0.572c0-0.103 0.033-0.206 0.061-0.314l0.268-1.034-1.16-0.314 0.104-0.406 3.698 1.034-0.371 1.446c-0.086 0.431-0.313 0.799-0.631 1.061l-0.003 0.003c-0.15 0.109-0.322 0.179-0.502 0.207s-0.364 0.011-0.537-0.047c-0.275-0.065-0.506-0.219-0.669-0.429l-0.002-0.003c-0.164-0.212-0.264-0.481-0.265-0.774v-0l-1.509 0.572 0.104-0.429zM35.522 19.59c0.064 0.121 0.151 0.228 0.255 0.314s0.225 0.147 0.353 0.183c0.076 0.022 0.164 0.035 0.255 0.035 0.189 0 0.366-0.056 0.513-0.152l-0.004 0.002c0.241-0.203 0.406-0.488 0.465-0.806l0.263-1.029-1.855-0.52-0.262 1.029c-0.045 0.134-0.072 0.288-0.072 0.448 0 0.178 0.032 0.348 0.091 0.505l-0.003-0.010zM31.726 23.111l-0.279-0.223 1.64-2.257 3.052 2.417-1.586 2.189-0.279-0.223 1.34-1.846-1.094-0.863-1.198 1.652-0.273-0.217 1.225-1.652-1.132-0.897-1.417 1.92zM30.446 27.666l-0.782 0.046v-0.274l0.782-0.006-0.421-0.68 0.214-0.143 0.416 0.686 0.339-0.766 0.235 0.131-0.371 0.72 0.782-0.046v0.28h-0.793l0.421 0.68-0.213 0.143-0.416-0.686-0.361 0.743-0.23-0.137 0.399-0.692zM23.336 27.209l0.662 0.383c0.111-0.223 0.266-0.418 0.454-0.574s0.406-0.268 0.64-0.329c0.217-0.071 0.446-0.096 0.672-0.074 0.197 0.015 0.386 0.087 0.547 0.206 0.146 0.114 0.253 0.274 0.306 0.457 0.066 0.226 0.054 0.469-0.033 0.686-0.137 0.295-0.322 0.564-0.547 0.794 0.18 0.101 0.347 0.226 0.497 0.371 0.103 0.111 0.181 0.246 0.225 0.394 0.014 0.056 0.022 0.12 0.022 0.185 0 0.183-0.062 0.351-0.166 0.485l0.001-0.002c-0.142 0.214-0.355 0.371-0.605 0.438l-0.007 0.002c-0.1 0.041-0.217 0.065-0.339 0.065s-0.239-0.024-0.345-0.067l0.006 0.002c-0.1-0.046-0.184-0.112-0.25-0.193l-0.001-0.001c-0.066-0.081-0.116-0.179-0.142-0.287l-0.001-0.005c-0.057-0.189-0.043-0.393 0.039-0.572 0.132-0.27 0.294-0.502 0.487-0.704l-0.001 0.001-1.318-0.766c-0.050 0.269-0.061 0.545-0.033 0.817h-0.333c-0.004-0.057-0.006-0.124-0.006-0.191 0-0.286 0.042-0.563 0.121-0.823l-0.005 0.020-0.689-0.4 0.142-0.32zM24.287 27.78l1.449 0.84c0.19-0.19 0.347-0.412 0.465-0.657 0.060-0.166 0.060-0.349 0-0.514-0.026-0.103-0.074-0.192-0.14-0.266l0.001 0.001c-0.065-0.073-0.147-0.129-0.239-0.162l-0.004-0.001c-0.104-0.038-0.225-0.060-0.35-0.060s-0.246 0.022-0.357 0.062l0.007-0.002c-0.186 0.051-0.358 0.144-0.506 0.273-0.146 0.128-0.263 0.285-0.344 0.462l-0.003 0.009 0.022 0.017zM26.344 30.066c0.043-0.075 0.069-0.165 0.069-0.261 0-0.058-0.009-0.113-0.026-0.166l0.001 0.004c-0.035-0.116-0.095-0.216-0.175-0.297l0 0c-0.139-0.123-0.291-0.229-0.454-0.314-0.166 0.171-0.311 0.363-0.432 0.572-0.041 0.078-0.064 0.171-0.064 0.269 0 0.055 0.007 0.108 0.021 0.158l-0.001-0.004c0.017 0.065 0.048 0.126 0.089 0.178 0.041 0.051 0.091 0.093 0.149 0.123l0.003 0.001c0.139 0.055 0.293 0.055 0.432 0 0.154-0.045 0.281-0.14 0.365-0.266l0.002-0.002 0.022 0.006zM16.669 31.615l0.077-4.001h0.389l-0.061 3.2 1.553-2.663h0.191l1.455 2.709 0.054-3.183h0.389l-0.071 4.001h-0.334l-1.608-2.989-1.701 2.932-0.334-0.006zM14.765 27.431c0.25 0.249 0.429 0.566 0.517 0.915s0.081 0.717-0.019 1.063c-0.094 0.365-0.275 0.68-0.52 0.932l0-0c-0.233 0.241-0.532 0.417-0.868 0.5l-0.012 0.003c-0.14 0.035-0.301 0.054-0.467 0.054-0.212 0-0.416-0.032-0.608-0.093l0.014 0.004c-0.361-0.095-0.671-0.276-0.919-0.52l0 0c-0.241-0.242-0.419-0.548-0.506-0.89l-0.003-0.013c-0.038-0.152-0.059-0.327-0.059-0.506 0-0.205 0.028-0.403 0.080-0.592l-0.004 0.015c0.1-0.364 0.284-0.678 0.53-0.93l-0 0c0.23-0.241 0.522-0.42 0.851-0.511l0.013-0.003c0.14-0.034 0.3-0.054 0.465-0.054 0.211 0 0.414 0.032 0.605 0.092l-0.014-0.004c0.364 0.099 0.676 0.286 0.924 0.537l0 0zM12.9 27.231c-0.28 0.070-0.52 0.215-0.705 0.411l-0.001 0.001c-0.197 0.206-0.342 0.463-0.413 0.749l-0.002 0.012c-0.076 0.286-0.076 0.589 0 0.874 0.065 0.278 0.203 0.532 0.399 0.732 0.206 0.21 0.46 0.362 0.738 0.44 0.278 0.074 0.569 0.074 0.848 0 0.267-0.069 0.513-0.211 0.711-0.412 0.2-0.21 0.344-0.473 0.415-0.76 0.036-0.132 0.057-0.284 0.057-0.44s-0.021-0.308-0.060-0.452l0.003 0.012c-0.073-0.287-0.214-0.534-0.405-0.732l0.001 0.001c-0.199-0.203-0.45-0.355-0.732-0.432l-0.011-0.003c-0.126-0.038-0.271-0.060-0.421-0.060s-0.295 0.022-0.432 0.062l0.011-0.003zM8.759 24.574l0.147 1.572c0.094 0.042 0.185 0.090 0.274 0.143l0.892 0.537 0.602-1.109 0.355 0.211-1.915 3.446-1.247-0.749c-0.372-0.201-0.659-0.518-0.816-0.902l-0.004-0.012c-0.042-0.123-0.066-0.265-0.066-0.412 0-0.249 0.069-0.482 0.19-0.68l-0.003 0.006c0.127-0.25 0.329-0.451 0.574-0.572 0.249-0.108 0.526-0.13 0.788-0.063l-0.158-1.68 0.389 0.263zM8.137 26.38c-0.136 0.036-0.255 0.098-0.357 0.179l0.002-0.002c-0.106 0.084-0.194 0.189-0.26 0.309-0.082 0.148-0.131 0.325-0.131 0.513 0 0.102 0.014 0.201 0.041 0.295l-0.002-0.008c0.129 0.296 0.351 0.536 0.629 0.68l0.88 0.532 0.958-1.715-0.881-0.532c-0.221-0.176-0.504-0.282-0.812-0.282-0.024 0-0.048 0.001-0.071 0.002l0.003-0v0.029zM5.522 21.894l0.246-0.257 1.887 2.029-2.735 2.789-1.821-1.966 0.251-0.257 1.548 1.663 0.935-0.989-1.356-1.474 0.262-0.263 1.384 1.486 1.017-1.034-1.619-1.726zM1.457 19.648l0.131-0.789 0.257 0.040-0.147 0.812 0.728-0.28 0.087 0.251-0.738 0.263 0.607 0.537-0.175 0.206-0.585-0.572-0.137 0.812-0.262-0.051 0.153-0.812-0.733 0.274-0.082-0.223 0.733-0.269-0.608-0.532 0.181-0.206 0.591 0.537z"></path>
</symbol>
<symbol id="instagram-2" viewBox="0 0 32 32">
<path fill="#ff6c00" style="fill: var(--color1, #ff6c00)" d="M31.986 9.413c-0.074-1.702-0.349-2.87-0.743-3.884-0.425-1.112-1.055-2.060-1.851-2.839l-0.001-0.001c-0.78-0.793-1.725-1.42-2.78-1.828l-0.054-0.018c-1.020-0.394-2.182-0.668-3.884-0.743-1.713-0.082-2.257-0.101-6.605-0.101-4.346 0-4.891 0.019-6.599 0.094-1.7 0.074-2.87 0.349-3.882 0.743-1.113 0.424-2.061 1.055-2.84 1.851l-0.001 0.001c-0.792 0.78-1.419 1.725-1.826 2.78l-0.018 0.054c-0.395 1.020-0.669 2.182-0.744 3.884-0.082 1.713-0.101 2.257-0.101 6.605 0 4.346 0.019 4.891 0.094 6.599 0.075 1.702 0.351 2.87 0.744 3.884 0.427 1.111 1.056 2.058 1.85 2.839l0.001 0.001c0.8 0.813 1.771 1.444 2.834 1.844 1.020 0.395 2.184 0.671 3.884 0.744 1.708 0.075 2.252 0.094 6.599 0.094 4.348 0 4.892-0.019 6.599-0.094 1.702-0.074 2.87-0.349 3.884-0.743 2.159-0.851 3.835-2.527 4.667-4.63l0.019-0.055c0.394-1.020 0.669-2.184 0.744-3.884 0.075-1.708 0.093-2.253 0.093-6.599s-0.006-4.891-0.080-6.599zM29.105 22.487c-0.070 1.564-0.333 2.408-0.551 2.971-0.552 1.4-1.641 2.488-3.006 3.026l-0.036 0.013c-0.56 0.219-1.412 0.482-2.97 0.551-1.689 0.075-2.195 0.094-6.468 0.094-4.271 0-4.785-0.019-6.468-0.094-1.564-0.069-2.408-0.331-2.971-0.551-0.721-0.269-1.335-0.676-1.837-1.193l-0.001-0.001c-0.517-0.504-0.924-1.117-1.184-1.804l-0.011-0.034c-0.218-0.564-0.48-1.414-0.549-2.971-0.075-1.689-0.094-2.196-0.094-6.468 0-4.273 0.019-4.787 0.094-6.468 0.069-1.564 0.331-2.408 0.549-2.971 0.269-0.723 0.678-1.338 1.199-1.838l0.002-0.002c0.505-0.517 1.119-0.924 1.807-1.183l0.034-0.011c0.56-0.219 1.412-0.48 2.97-0.551 1.689-0.074 2.196-0.093 6.468-0.093 4.278 0 4.785 0.019 6.468 0.093 1.564 0.069 2.408 0.331 2.971 0.551 0.693 0.256 1.326 0.663 1.838 1.194 0.532 0.52 0.938 1.145 1.196 1.841 0.218 0.56 0.48 1.412 0.549 2.97 0.075 1.689 0.094 2.195 0.094 6.468 0 4.271-0.019 4.771-0.094 6.461z"></path>
<path fill="#ff6c00" style="fill: var(--color1, #ff6c00)" d="M16.069 7.787c-4.542 0.002-8.223 3.684-8.224 8.225v0c0 0 0 0.001 0 0.002 0 4.544 3.683 8.227 8.227 8.227s8.227-3.683 8.227-8.227c0-4.544-3.683-8.227-8.227-8.227-0.001 0-0.001 0-0.002 0h0zM16.069 21.347c-2.947-0-5.335-2.389-5.335-5.336s2.389-5.336 5.336-5.336c0 0 0.001 0 0.001 0h-0c2.947 0 5.337 2.389 5.337 5.337s-2.389 5.337-5.337 5.337v0zM26.54 7.462c0 1.061-0.86 1.921-1.921 1.921s-1.921-0.86-1.921-1.921v0c0-1.061 0.86-1.921 1.921-1.921s1.921 0.86 1.921 1.921v0z"></path>
</symbol>
<symbol id="twitter-1" viewBox="0 0 32 32">
<path d="M32.019 6.082c-1.101 0.494-2.378 0.858-3.715 1.029l-0.068 0.007c1.361-0.817 2.383-2.079 2.875-3.582l0.013-0.046c-1.198 0.723-2.593 1.274-4.078 1.574l-0.084 0.014c-1.2-1.28-2.902-2.077-4.79-2.077-3.624 0-6.562 2.938-6.562 6.562 0 0.001 0 0.003 0 0.004v-0c0 0.52 0.043 1.021 0.152 1.497-5.458-0.266-10.286-2.882-13.529-6.865-0.564 0.95-0.899 2.093-0.903 3.314v0.001c0 2.273 1.172 4.289 2.915 5.454-1.092-0.030-2.108-0.325-2.996-0.824l0.033 0.017v0.072c0.003 3.167 2.238 5.811 5.216 6.444l0.043 0.008c-0.499 0.136-1.072 0.215-1.663 0.215-0.020 0-0.041-0-0.061-0l0.003 0c-0.419 0-0.844-0.024-1.242-0.112 0.85 2.6 3.263 4.511 6.133 4.572-2.216 1.747-5.048 2.802-8.127 2.802-0.004 0-0.008 0-0.013 0h0.001c-0.018 0-0.040 0-0.062 0-0.532 0-1.056-0.034-1.569-0.099l0.061 0.006c2.828 1.847 6.291 2.946 10.010 2.946 0.021 0 0.042-0 0.063-0h-0.003c12.079 0 18.683-10.006 18.683-18.68 0-0.288-0.010-0.57-0.024-0.848 1.299-0.936 2.392-2.065 3.26-3.357l0.030-0.047z"></path>
</symbol>
<symbol id="linkedin-1" viewBox="0 0 32 32">
<path d="M32.011 32.019h0.008v-11.744c0-5.744-1.238-10.169-7.952-10.169-3.229 0-5.395 1.771-6.28 3.452h-0.093v-2.915h-6.369v21.376h6.631v-10.584c0-2.787 0.528-5.483 3.98-5.483 3.4 0 3.45 3.181 3.45 5.661v10.408h6.625zM0.528 10.641h6.639v21.377h-6.639v-21.377zM3.845 0c-2.124 0-3.845 1.722-3.845 3.845v0c0 2.121 1.723 3.881 3.845 3.881 2.121 0 3.844-1.758 3.844-3.881s-1.721-3.844-3.844-3.845h-0z"></path>
</symbol>
<symbol id="facebook-1" viewBox="0 0 32 32">
<path d="M21.34 5.315h2.925v-5.091c-1.233-0.143-2.662-0.224-4.11-0.224-0.052 0-0.104 0-0.157 0l0.008-0c-4.215 0-7.103 2.651-7.103 7.524v4.483h-4.649v5.691h4.649v14.32h5.703v-14.319h4.462l0.708-5.691h-5.171v-3.924c0-1.644 0.443-2.77 2.736-2.77z"></path>
</symbol>
</defs>
</svg>
